<svg xmlns="http://www.w3.org/2000/svg" version="1.1" xmlns:xlink="http://www.w3.org/1999/xlink" xmlns:svgjs="http://svgjs.dev/svgjs" width="100%" height="100%" viewBox="0 0 1000 600"><rect width="1000" height="600" x="0" y="0" fill="white"/><g><rect width="333.3333333333333" height="333.3333333333333" y="280.77463275747124" fill="black" transform="matrix(0.48346101430655886,0,0,0.48346101430655886,0,83.67958231619852)" x="258.5523986816406"/><path d="M324.42874602704654 522.4413065437568L324.42874602704654 522.4413065437568Q311.7164543760954 522.4413065437568 303.266816076356 516.993181550492Q294.81717777661663 511.54505655722727 290.45363322182584 501.9099466154349Q286.1153114679298 492.3000594745373 285.38385024198226 479.58776782358615L285.38385024198226 479.58776782358615L303.5442668861982 474.669321649111Q304.07394570498786 482.4883899264817 305.9908785729884 489.75255658416813Q307.907811440989 497.0167232418545 312.24613319488503 501.6324958055927Q316.60967774967577 506.27349117022567 324.42874602704654 506.27349117022567L324.42874602704654 506.27349117022567Q332.4243739106805 506.27349117022567 336.5104676556291 501.8342782127507Q340.5965614005777 497.36984245438094 340.5965614005777 489.0210953582205L340.5965614005777 489.0210953582205Q340.5965614005777 479.03286620390173 336.0564572395237 472.9541711882684Q331.5163530784697 466.875476172635 324.60530563330974 460.6958899534226L324.60530563330974 460.6958899534226L299.912183557355 438.90338998036344Q292.6480168996686 432.5472441548879 289.19249317708864 425.0056266873593Q285.73696945450865 417.46400921983076 285.73696945450865 406.39119962703796L285.73696945450865 406.39119962703796Q285.73696945450865 390.2233842535068 294.9937373828799 381.31973553766204Q304.27572811214577 372.441309622712 320.24176107851895 372.441309622712L320.24176107851895 372.441309622712Q328.96885018810053 372.441309622712 335.6024468234183 374.711361703239Q342.21082065784134 376.981413783766 346.6752564162111 381.6980775510832Q351.1144693736861 386.4147413184004 353.76286346763425 393.57801677250785Q356.38603476068766 400.7665150275099 357.2940555928985 410.37640216840754L357.2940555928985 410.37640216840754L339.86510017463013 415.1182887366195Q339.3101985549457 407.85412207893313 337.67071649678735 401.75020426240496Q336.0564572395237 395.67150924677156 331.9703634945751 391.96375751524414Q327.8842697496265 388.230782982822 320.24176107851895 388.230782982822L320.24176107851895 388.230782982822Q312.6244752083062 388.230782982822 308.36182185709436 392.3168767277706Q304.07394570498786 396.4029704727192 304.07394570498786 404.39859835635315L304.07394570498786 404.39859835635315Q304.07394570498786 411.10786339435515 306.34399778551483 415.47140794914594Q308.6140498660418 419.8349525039367 313.7090556467802 424.3750566649907L313.7090556467802 424.3750566649907L338.57873732899816 446.1675566380498Q346.95270722605323 453.4317232957362 353.30885305152884 463.49562085273925Q359.66499887700445 473.584741210637 359.66499887700445 487.38161330006216L359.66499887700445 487.38161330006216Q359.66499887700445 498.27786328659175 355.12489471595046 506.1725999666467Q350.5847905548965 514.0925594475964 342.66483107394674 518.2543215952293Q334.7700943938917 522.4413065437568 324.42874602704654 522.4413065437568ZM412.3302071452307 520.8018244855984L391.79884721690877 520.8018244855984L391.79884721690877 388.96224420876956L366.9291655346908 388.96224420876956L366.9291655346908 373.70244966744923L436.46842760150105 373.70244966744923L436.46842760150105 388.96224420876956L412.3302071452307 388.96224420876956L412.3302071452307 520.8018244855984ZM485.3249929346209 520.8018244855984L469.71207918077414 520.8018244855984L445.7251955298723 373.70244966744923L462.8010317356142 373.70244966744923L478.6157278966189 479.3859854164282L498.39040379809853 374.25735128713364L512.9187371134713 374.25735128713364L532.8951954221088 479.94088703611254L548.3315495696925 373.70244966744923L565.054266562908 373.70244966744923L541.4457249254272 520.8018244855984L526.5390495966333 520.8018244855984L506.03291246920605 411.8393246203027L485.3249929346209 520.8018244855984Z " fill="white" transform="matrix(0.48346101430655886,0,0,0.48346101430655886,0,83.67958231619852)"/><path d="M714.7936296834177 522.4413065437568L714.7936296834177 522.4413065437568Q699.180715929571 522.4413065437568 690.5545180235683 515.908601112018Q681.9283201175658 509.3506728793845 678.5736875985648 498.27786328659175Q675.2190550795638 487.2050536937989 675.2190550795638 473.584741210637L675.2190550795638 473.584741210637L675.2190550795638 421.6509941683583Q675.2190550795638 406.74431883956436 678.5736875985648 395.67150924677156Q681.9283201175658 384.5986996539788 690.5545180235683 378.5200046383454Q699.180715929571 372.441309622712 714.7936296834177 372.441309622712L714.7936296834177 372.441309622712Q728.5905017728429 372.441309622712 736.6870208600558 377.5110926025556Q744.7583171463741 382.606098383294 748.3147320725329 392.03942591792844Q751.8459241977972 401.4979762534576 751.8459241977972 414.73994672319833L751.8459241977972 414.73994672319833L751.8459241977972 426.3676579356755L732.424367508844 426.3676579356755L732.424367508844 416.0263095688303Q732.424367508844 407.85412207893313 731.5920150793174 401.57364465614177Q730.7848854506856 395.31839003424517 727.1528021218425 391.8628663116652Q723.5207187929993 388.4073425890852 714.970189289681 388.4073425890852L714.970189289681 388.4073425890852Q706.2683229809941 388.4073425890852 702.2578976387298 392.1403171215074Q698.2726950973602 395.8480688530348 697.0872234553071 402.6582250946158Q695.9017518132541 409.4683813361968 695.9017518132541 418.54858965830476L695.9017518132541 418.54858965830476L695.9017518132541 476.8637053269537Q695.9017518132541 487.9365149197465 697.7177934776757 494.3683291479063Q699.5338351420974 500.8253661769609 703.720820090625 503.54942867359324Q707.9078050391524 506.27349117022567 714.970189289681 506.27349117022567L714.970189289681 506.27349117022567Q723.3441591867361 506.27349117022567 726.9762425155793 502.5405166378035Q730.6083258444224 498.8327649062761 731.5163466766332 492.3000594745373Q732.424367508844 485.7421312419038 732.424367508844 477.040264933217L732.424367508844 477.040264933217L732.424367508844 466.1440149466874L751.8459241977972 466.1440149466874L751.8459241977972 477.040264933217Q751.8459241977972 490.48401781011574 748.5669600814804 500.7244749733819Q745.3132187660584 510.99015493754285 737.3175908824244 516.7157307406499Q729.3219629987905 522.4413065437568 714.7936296834177 522.4413065437568ZM789.8062395443875 520.8018244855984L770.3594600545396 520.8018244855984L770.3594600545396 373.70244966744923L789.8062395443875 373.70244966744923L789.8062395443875 426.72077714820193Q795.0778049313891 421.6509941683583 801.6105103631279 418.0189108395151Q808.1432157948666 414.38682751067194 816.1388436785006 414.38682751067194L816.1388436785006 414.38682751067194Q822.318429897713 414.38682751067194 825.6730624167141 417.64056882609395Q829.0276949357151 420.91953294241074 830.3897261840311 425.8127563159911Q831.7517574323474 430.7312024904663 831.7517574323474 435.8009854703099L831.7517574323474 435.8009854703099L831.7517574323474 520.8018244855984L812.3302007433942 520.8018244855984L812.3302007433942 441.4508928707326Q812.3302007433942 435.8009854703099 810.6907186852359 432.7238037611511Q809.0512366270775 429.64662205199227 803.956230846339 429.64662205199227L803.956230846339 429.64662205199227Q800.5259299246538 429.64662205199227 796.7929553922316 431.6392233226771Q793.0599808598096 433.63182459336184 789.8062395443875 436.5324466962575L789.8062395443875 436.5324466962575L789.8062395443875 520.8018244855984ZM869.5355131726744 522.2647469374936L869.5355131726744 522.2647469374936Q863.3559269534621 522.2647469374936 858.639263186145 518.7083320113347Q853.897376617933 515.1771398860704 851.1733141213006 509.6281236892267Q848.4492516246682 504.10433029327766 848.4492516246682 497.9247440740653L848.4492516246682 497.9247440740653Q848.4492516246682 488.1130745260097 851.728215740985 481.4038094880077Q855.0071798573017 474.669321649111 860.707532859514 470.05354908537277Q866.433108662621 465.4125537207398 873.9747261301495 461.95702999815984Q881.5163435976781 458.50150627557986 889.8650906938385 455.24776496015784L889.8650906938385 455.24776496015784L889.8650906938385 447.8070386962082Q889.8650906938385 441.4508928707326 889.1336294678908 437.2639079222051Q888.4021682419433 433.0769229736775 886.1321161614163 431.0086533003085Q883.8620640808892 428.91516082604466 879.3219599198353 428.91516082604466L879.3219599198353 428.91516082604466Q875.3367573784657 428.91516082604466 872.8901456916755 430.7312024904663Q870.4435340048852 432.5472441548879 869.3337307655165 435.90187667388886Q868.2491503270425 439.2565091928899 868.2491503270425 443.7966133539439L868.2491503270425 443.7966133539439L868.2491503270425 449.0681787409454L849.0041532443526 448.3367175149979Q849.357272456879 430.90776209672947 856.9997811279866 422.6346834032533Q864.6170669981993 414.38682751067194 880.6083227654673 414.38682751067194L880.6083227654673 414.38682751067194Q896.2212365193141 414.38682751067194 902.7539419510529 422.9121342130955Q909.2866473827917 431.46266371641383 909.2866473827917 447.60525628905026L909.2866473827917 447.60525628905026L909.2866473827917 495.5538007899593Q909.2866473827917 500.4722469644345 909.5640981926338 505.01235112548846Q909.841549002476 509.55245528654245 910.2955594185814 513.4367666243331Q910.7495698346868 517.3463007630185 911.1026890472133 520.8018244855984L911.1026890472133 520.8018244855984L893.3206144164185 520.8018244855984Q892.7657127967341 517.9012023827029 891.9585831681022 513.4367666243331Q891.1262307385757 508.9975536668581 890.7731115260492 505.36547033801486L890.7731115260492 505.36547033801486Q888.9570698616277 511.54505655722727 883.786395678205 516.8922903469131Q878.6157214947824 522.2647469374936 869.5355131726744 522.2647469374936ZM877.1527990428873 505.5420299442781L877.1527990428873 505.5420299442781Q880.0534211457829 505.5420299442781 882.600924036152 503.90254788611975Q885.1484269265212 502.28828862885604 887.1410281972061 500.1947961545923Q889.1336294678908 498.1013036803285 889.8650906938385 496.8401636355913L889.8650906938385 496.8401636355913L889.8650906938385 467.0520357788982Q885.3249865327845 469.59953866926736 881.3397839914148 472.12181875874177Q877.3293586491505 474.669321649111 874.3278453426759 477.4942753493223Q871.351554837096 480.294006248639 869.6111815753587 483.85042117479793Q867.8960311145161 487.38161330006216 867.8960311145161 491.92171746111615L867.8960311145161 491.92171746111615Q867.8960311145161 498.27786328659175 870.2417515977273 501.9099466154349Q872.6126948818332 505.5420299442781 877.1527990428873 505.5420299442781ZM947.9784239553295 520.8018244855984L928.5568672663763 520.8018244855984L928.5568672663763 415.82452716167234L947.9784239553295 415.82452716167234L947.9784239553295 430.7312024904663Q953.7796681611208 421.09609254867394 959.6061351678067 417.8423512332519Q965.4073793735979 414.56338711693513 971.2338463802838 414.56338711693513L971.2338463802838 414.56338711693513Q971.9400848053367 414.56338711693513 972.5958776286 414.56338711693513Q973.2264476509686 414.56338711693513 974.3110280894426 414.73994672319833L974.3110280894426 414.73994672319833L974.3110280894426 436.1793274837311Q972.1418672124946 435.27130665152026 969.3169135122832 434.64073662915166Q966.4919598120719 433.9849438058883 963.5913377091763 433.9849438058883L963.5913377091763 433.9849438058883Q959.0512335481224 433.9849438058883 955.3434818165948 436.07843628015206Q951.6105072841726 438.1719287544159 947.9784239553295 444.17495536736504L947.9784239553295 444.17495536736504L947.9784239553295 520.8018244855984ZM1005.1837363846098 522.2647469374936L1005.1837363846098 522.2647469374936Q999.0041501653974 522.2647469374936 994.2874863980802 518.7083320113347Q989.5708226307629 515.1771398860704 986.8467601341306 509.6281236892267Q984.1226976374983 504.10433029327766 984.1226976374983 497.9247440740653L984.1226976374983 497.9247440740653Q984.1226976374983 488.1130745260097 987.3764389529202 481.4038094880077Q990.6554030692371 474.669321649111 996.3809788723439 470.05354908537277Q1002.106554675451 465.4125537207398 1009.6229493420847 461.95702999815984Q1017.1645668096132 458.50150627557986 1025.5133139057739 455.24776496015784L1025.5133139057739 455.24776496015784L1025.5133139057739 447.8070386962082Q1025.5133139057739 441.4508928707326 1024.8070754807209 437.2639079222051Q1024.0756142547734 433.0769229736775 1021.8055621742463 431.0086533003085Q1019.5355100937193 428.91516082604466 1014.9954059326653 428.91516082604466L1014.9954059326653 428.91516082604466Q1010.9849805904009 428.91516082604466 1008.5383689036107 430.7312024904663Q1006.0917572168205 432.5472441548879 1005.0071767783465 435.90187667388886Q1003.9225963398726 439.2565091928899 1003.9225963398726 443.7966133539439L1003.9225963398726 443.7966133539439L1003.9225963398726 449.0681787409454L984.6523764562878 448.3367175149979Q985.030718469709 430.90776209672947 992.6480043399218 422.6346834032533Q1000.2905130110294 414.38682751067194 1016.2565459774025 414.38682751067194L1016.2565459774025 414.38682751067194Q1031.8694597312492 414.38682751067194 1038.427387963883 422.9121342130955Q1044.9600933956217 431.46266371641383 1044.9600933956217 447.60525628905026L1044.9600933956217 447.60525628905026L1044.9600933956217 495.5538007899593Q1044.9600933956217 500.4722469644345 1045.2375442054638 505.01235112548846Q1045.4897722144112 509.55245528654245 1045.9437826305166 513.4367666243331Q1046.3977930466222 517.3463007630185 1046.7761350600433 520.8018244855984L1046.7761350600433 520.8018244855984L1028.9688376283536 520.8018244855984Q1028.439158809564 517.9012023827029 1027.6068063800376 513.4367666243331Q1026.7996767514055 508.9975536668581 1026.4213347379846 505.36547033801486L1026.4213347379846 505.36547033801486Q1024.605293073563 511.54505655722727 1019.4346188901403 516.8922903469131Q1014.2639447067177 522.2647469374936 1005.1837363846098 522.2647469374936ZM1012.8010222548226 505.5420299442781L1012.8010222548226 505.5420299442781Q1015.7268671586129 505.5420299442781 1018.2491472480874 503.90254788611975Q1020.7966501384565 502.28828862885604 1022.7892514091413 500.1947961545923Q1024.8070754807209 498.1013036803285 1025.5133139057739 496.8401636355913L1025.5133139057739 496.8401636355913L1025.5133139057739 467.0520357788982Q1020.9732097447197 469.59953866926736 1016.9880072033502 472.12181875874177Q1013.0028046619805 474.669321649111 1010.0012913555059 477.4942753493223Q1006.9997780490314 480.294006248639 1005.2846275881888 483.85042117479793Q1003.5442543264513 487.38161330006216 1003.5442543264513 491.92171746111615L1003.5442543264513 491.92171746111615Q1003.5442543264513 498.27786328659175 1005.9151976105572 501.9099466154349Q1008.2609180937686 505.5420299442781 1012.8010222548226 505.5420299442781ZM1092.3537362768463 522.2647469374936L1092.3537362768463 522.2647469374936Q1079.4648850196318 522.2647469374936 1072.8312883843141 517.0688499531764Q1066.1976917489965 511.89817576975366 1063.9276396684695 502.4648482351193Q1061.6575875879425 493.00629789959015 1061.6575875879425 480.4957886557969L1061.6575875879425 480.4957886557969L1061.6575875879425 456.33234539863184Q1061.6575875879425 443.06515212799627 1064.0285308720483 433.73271579694085Q1066.3742513552595 424.3750566649907 1073.0078479905774 419.38094208783133Q1079.6414446258952 414.38682751067194 1092.3537362768463 414.38682751067194L1092.3537362768463 414.38682751067194Q1103.8048878830602 414.38682751067194 1110.060142504957 418.09457924219936Q1116.3153971268534 421.8275537746215 1118.6863404109595 429.19261163588686Q1121.0572836950655 436.5324466962575 1121.0572836950655 447.42869668278706L1121.0572836950655 447.42869668278706L1121.0572836950655 453.6082829019994L1103.426545869639 453.6082829019994L1103.426545869639 447.25213707652387Q1103.426545869639 440.3410896313639 1102.5185250374284 436.35588708999427Q1101.6105042052175 432.37068454862464 1099.2647837220063 430.5546428842031Q1096.8938404379003 428.73860121978146 1092.5302958831096 428.73860121978146L1092.5302958831096 428.73860121978146Q1087.8136321157924 428.73860121978146 1085.2661292254231 430.90776209672947Q1082.718626335054 433.0769229736775 1081.911496706422 438.27281995799484Q1081.1043670777904 443.44349414141743 1081.1043670777904 452.3471428572622L1081.1043670777904 452.3471428572622L1081.1043670777904 485.38901202937734Q1081.1043670777904 498.8327649062761 1083.6266471672648 503.3728690673301Q1086.1741500576338 507.91297322838403 1092.7068554893726 507.91297322838403L1092.7068554893726 507.91297322838403Q1097.625301663848 507.91297322838403 1099.895353744375 505.64292114785707Q1102.1654058249019 503.3728690673301 1102.7959758472705 499.1858841188025Q1103.426545869639 495.0241219711697 1103.426545869639 489.75255658416813L1103.426545869639 489.75255658416813L1103.426545869639 481.20202708084975L1121.0572836950655 481.20202708084975L1121.0572836950655 488.46619373853616Q1121.0572836950655 499.0093245125393 1118.5854492073804 506.6266103827521Q1116.1388375205902 514.2691190538596 1109.8835828986937 518.2543215952293Q1103.6031054759023 522.2647469374936 1092.3537362768463 522.2647469374936ZM1166.2565428984474 522.2647469374936L1166.2565428984474 522.2647469374936Q1158.0843554085502 522.2647469374936 1153.0902408313907 519.1623424274401Q1148.0961262542314 516.0851607182813 1145.8260741737045 510.46047611875326Q1143.5560220931775 504.8105687183305 1143.5560220931775 497.1932828481177L1143.5560220931775 497.1932828481177L1143.5560220931775 428.73860121978146L1132.4832125003845 428.73860121978146L1132.4832125003845 415.82452716167234L1143.5560220931775 415.82452716167234L1143.5560220931775 385.1536012736632L1163.0028015830253 385.1536012736632L1163.0028015830253 415.82452716167234L1179.8768553816094 415.82452716167234L1179.8768553816094 428.73860121978146L1163.0028015830253 428.73860121978146L1163.0028015830253 495.9321428033805Q1163.0028015830253 502.08650622169813 1164.9954028537102 504.73490031564626Q1166.988004124395 507.35807160869973 1172.612688723923 507.35807160869973L1172.612688723923 507.35807160869973Q1174.075611175818 507.35807160869973 1175.9925440438187 507.1815120024365Q1177.8842541109245 507.0049523961733 1179.7002957753461 506.8283927899101L1179.7002957753461 506.8283927899101L1179.7002957753461 521.154943698125Q1176.068212446503 521.7098453178093 1172.991030737344 521.9872961276515Q1169.8886262272906 522.2647469374936 1166.2565428984474 522.2647469374936ZM1223.2852957214645 522.2647469374936L1223.2852957214645 522.2647469374936Q1210.9513460839344 522.2647469374936 1204.2168582450377 517.4471919665975Q1197.5075932070358 512.6296369957013 1194.8591991130875 503.27197786375115Q1192.236027820034 493.91431873180096 1192.236027820034 480.294006248639L1192.236027820034 480.294006248639L1192.236027820034 456.33234539863184Q1192.236027820034 442.3589137029434 1194.9600903166665 433.0769229736775Q1197.6841528132989 423.8201550453063 1204.49430905488 419.1034912779891Q1211.3044652964609 414.38682751067194 1223.2852957214645 414.38682751067194L1223.2852957214645 414.38682751067194Q1236.5524889920998 414.38682751067194 1242.8077436139965 419.8349525039367Q1249.088221036788 425.2830774972015 1251.0808223074728 435.54875746136247Q1253.0734235781574 445.78921462462864 1253.0734235781574 460.1409883337382L1253.0734235781574 460.1409883337382L1253.0734235781574 468.69151783705655L1211.6575845089872 468.69151783705655L1211.6575845089872 489.75255658416813Q1211.6575845089872 496.1087024096437 1212.8430561510404 500.0939049510133Q1214.0285277930932 504.10433029327766 1216.6516990861467 505.99604036038346Q1219.3000931800948 507.91297322838403 1223.4618553277276 507.91297322838403L1223.4618553277276 507.91297322838403Q1227.8253998825185 507.91297322838403 1230.0954519630454 505.8194807541203Q1232.3655040435724 503.7259882798565 1233.197856473099 499.8164541411711Q1234.0049861017308 495.9321428033805 1234.0049861017308 490.6605774163789L1234.0049861017308 490.6605774163789L1234.0049861017308 484.30443159090333L1252.8968639718942 484.30443159090333L1252.8968639718942 488.28963413227297Q1252.8968639718942 504.10433029327766 1246.1623761329975 513.1845386153857Q1239.4531110949956 522.2647469374936 1223.2852957214645 522.2647469374936ZM1211.6575845089872 452.5237024635254L1211.6575845089872 458.1483870630534L1234.0049861017308 458.1483870630534L1234.0049861017308 448.71505952841903Q1234.0049861017308 442.15713129578546 1233.273524875783 437.7179183383105Q1232.5420636498357 433.27870538083545 1230.2720115693087 431.0086533003085Q1228.0019594887817 428.73860121978146 1223.1087361152013 428.73860121978146L1223.1087361152013 428.73860121978146Q1218.392072347884 428.73860121978146 1215.9454606610939 430.90776209672947Q1213.4736261734088 433.0769229736775 1212.565605341198 438.27281995799484Q1211.6575845089872 443.44349414141743 1211.6575845089872 452.5237024635254L1211.6575845089872 452.5237024635254ZM1290.6553969113265 520.8018244855984L1271.2338402223734 520.8018244855984L1271.2338402223734 415.82452716167234L1290.6553969113265 415.82452716167234L1290.6553969113265 430.7312024904663Q1296.4818639180126 421.09609254867394 1302.283108123804 417.8423512332519Q1308.1095751304897 414.56338711693513 1313.910819336281 414.56338711693513L1313.910819336281 414.56338711693513Q1314.6422805622285 414.56338711693513 1315.2728505845973 414.56338711693513Q1315.9034206069657 414.56338711693513 1316.9880010454397 414.73994672319833L1316.9880010454397 414.73994672319833L1316.9880010454397 436.1793274837311Q1314.8188401684918 435.27130665152026 1311.9938864682804 434.64073662915166Q1309.1941555689639 433.9849438058883 1306.293533466068 433.9849438058883L1306.293533466068 433.9849438058883Q1301.7534293050142 433.9849438058883 1298.020454772592 436.07843628015206Q1294.28748024017 438.1719287544159 1290.6553969113265 444.17495536736504L1290.6553969113265 444.17495536736504L1290.6553969113265 520.8018244855984ZM1415.7857121501536 520.8018244855984L1397.8018551122007 520.8018244855984L1364.9365455463487 373.70244966744923L1384.1815426290389 373.70244966744923L1407.4369650539932 482.11004791306055L1429.5825842395786 373.70244966744923L1448.297902503479 373.70244966744923L1415.7857121501536 520.8018244855984ZM1482.9792537337523 520.8018244855984L1463.5576970447994 520.8018244855984L1463.5576970447994 415.82452716167234L1482.9792537337523 415.82452716167234L1482.9792537337523 520.8018244855984ZM1482.9792537337523 400.2116134078256L1463.5576970447994 400.2116134078256L1463.5576970447994 379.88203588666164L1482.9792537337523 379.88203588666164L1482.9792537337523 400.2116134078256ZM1532.9203995053465 522.2647469374936L1532.9203995053465 522.2647469374936Q1520.5864498678163 522.2647469374936 1513.8519620289196 517.4471919665975Q1507.1426969909178 512.6296369957013 1504.4943028969694 503.27197786375115Q1501.871131603916 493.91431873180096 1501.871131603916 480.294006248639L1501.871131603916 480.294006248639L1501.871131603916 456.33234539863184Q1501.871131603916 442.3589137029434 1504.5951941005485 433.0769229736775Q1507.3192565971808 423.8201550453063 1514.129412838762 419.1034912779891Q1520.9395690803428 414.38682751067194 1532.9203995053465 414.38682751067194L1532.9203995053465 414.38682751067194Q1546.1875927759818 414.38682751067194 1552.4428473978785 419.8349525039367Q1558.72332482067 425.2830774972015 1560.7159260913547 435.54875746136247Q1562.7085273620394 445.78921462462864 1562.7085273620394 460.1409883337382L1562.7085273620394 460.1409883337382L1562.7085273620394 468.69151783705655L1521.2926882928691 468.69151783705655L1521.2926882928691 489.75255658416813Q1521.2926882928691 496.1087024096437 1522.4781599349224 500.0939049510133Q1523.6636315769751 504.10433029327766 1526.2868028700286 505.99604036038346Q1528.9351969639768 507.91297322838403 1533.0969591116097 507.91297322838403L1533.0969591116097 507.91297322838403Q1537.4605036664004 507.91297322838403 1539.7305557469274 505.8194807541203Q1542.0006078274544 503.7259882798565 1542.8329602569809 499.8164541411711Q1543.6400898856127 495.9321428033805 1543.6400898856127 490.6605774163789L1543.6400898856127 490.6605774163789L1543.6400898856127 484.30443159090333L1562.5319677557763 484.30443159090333L1562.5319677557763 488.28963413227297Q1562.5319677557763 504.10433029327766 1555.7974799168794 513.1845386153857Q1549.0882148788776 522.2647469374936 1532.9203995053465 522.2647469374936ZM1521.2926882928691 452.5237024635254L1521.2926882928691 458.1483870630534L1543.6400898856127 458.1483870630534L1543.6400898856127 448.71505952841903Q1543.6400898856127 442.15713129578546 1542.9086286596653 437.7179183383105Q1542.1771674337176 433.27870538083545 1539.9071153531904 431.0086533003085Q1537.6370632726637 428.73860121978146 1532.7438398990832 428.73860121978146L1532.7438398990832 428.73860121978146Q1528.027176131766 428.73860121978146 1525.5805644449758 430.90776209672947Q1523.1087299572907 433.0769229736775 1522.20070912508 438.27281995799484Q1521.2926882928691 443.44349414141743 1521.2926882928691 452.5237024635254L1521.2926882928691 452.5237024635254ZM1609.925610637001 520.8018244855984L1592.4966552187325 520.8018244855984L1575.5973786192537 415.82452716167234L1591.5886343865218 415.82452716167234L1602.4848843730513 493.2080803067481L1616.4583160687396 415.82452716167234L1631.3649913975337 415.82452716167234L1645.338423093222 492.8297382933269L1656.2346730797515 415.82452716167234L1672.2259288470198 415.82452716167234L1654.7717506278566 520.8018244855984L1638.4273756480623 520.8018244855984L1624.1008247398474 446.69723545683945L1609.925610637001 520.8018244855984ZM1716.1640480056642 522.2647469374936L1716.1640480056642 522.2647469374936Q1703.8048755672396 522.2647469374936 1697.0956105292373 517.4471919665975Q1690.3863454912355 512.6296369957013 1687.7379513972874 503.27197786375115Q1685.1147801042341 493.91431873180096 1685.1147801042341 480.294006248639L1685.1147801042341 480.294006248639L1685.1147801042341 456.33234539863184Q1685.1147801042341 442.3589137029434 1687.8388426008662 433.0769229736775Q1690.5629050974987 423.8201550453063 1697.3730613390796 419.1034912779891Q1704.183217580661 414.38682751067194 1716.1640480056642 414.38682751067194L1716.1640480056642 414.38682751067194Q1729.4312412763 414.38682751067194 1735.6864958981962 419.8349525039367Q1741.941750520093 425.2830774972015 1743.959574591673 435.54875746136247Q1745.9521758623575 445.78921462462864 1745.9521758623575 460.1409883337382L1745.9521758623575 460.1409883337382L1745.9521758623575 468.69151783705655L1704.536336793187 468.69151783705655L1704.536336793187 489.75255658416813Q1704.536336793187 496.1087024096437 1705.72180843524 500.0939049510133Q1706.907280077293 504.10433029327766 1709.5304513703466 505.99604036038346Q1712.1788454642945 507.91297322838403 1716.3406076119275 507.91297322838403L1716.3406076119275 507.91297322838403Q1720.7041521667181 507.91297322838403 1722.974204247245 505.8194807541203Q1725.244256327772 503.7259882798565 1726.0513859564041 499.8164541411711Q1726.8837383859307 495.9321428033805 1726.8837383859307 490.6605774163789L1726.8837383859307 490.6605774163789L1726.8837383859307 484.30443159090333L1745.7756162560943 484.30443159090333L1745.7756162560943 488.28963413227297Q1745.7756162560943 504.10433029327766 1739.0411284171976 513.1845386153857Q1732.3318633791953 522.2647469374936 1716.1640480056642 522.2647469374936ZM1704.536336793187 452.5237024635254L1704.536336793187 458.1483870630534L1726.8837383859307 458.1483870630534L1726.8837383859307 448.71505952841903Q1726.8837383859307 442.15713129578546 1726.1522771599832 437.7179183383105Q1725.4208159340353 433.27870538083545 1723.1507638535084 431.0086533003085Q1720.8807117729814 428.73860121978146 1715.987488399401 428.73860121978146L1715.987488399401 428.73860121978146Q1711.2708246320842 428.73860121978146 1708.798990144399 430.90776209672947Q1706.3523784576084 433.0769229736775 1705.4443576253982 438.27281995799484Q1704.536336793187 443.44349414141743 1704.536336793187 452.5237024635254L1704.536336793187 452.5237024635254ZM1783.5341491955267 520.8018244855984L1764.1125925065733 520.8018244855984L1764.1125925065733 415.82452716167234L1783.5341491955267 415.82452716167234L1783.5341491955267 430.7312024904663Q1789.3606162022127 421.09609254867394 1795.1618604080038 417.8423512332519Q1800.963104613795 414.56338711693513 1806.789571620481 414.56338711693513L1806.789571620481 414.56338711693513Q1807.5210328464284 414.56338711693513 1808.1516028687972 414.56338711693513Q1808.7821728911656 414.56338711693513 1809.8667533296396 414.73994672319833L1809.8667533296396 414.73994672319833L1809.8667533296396 436.1793274837311Q1807.6975924526917 435.27130665152026 1804.8726387524805 434.64073662915166Q1802.0729078531638 433.9849438058883 1799.1470629493735 433.9849438058883L1799.1470629493735 433.9849438058883Q1794.6069587883192 433.9849438058883 1790.8992070567922 436.07843628015206Q1787.16623252437 438.1719287544159 1783.5341491955267 444.17495536736504L1783.5341491955267 444.17495536736504L1783.5341491955267 520.8018244855984Z " fill="black" transform="matrix(0.48346101430655886,0,0,0.48346101430655886,0,83.67958231619852)"/></g></svg>